<?xml version="1.0" encoding="utf-8"?>
<!-- Generator: Adobe Illustrator 24.0.3, SVG Export Plug-In . SVG Version: 6.00 Build 0)  -->
<svg version="1.1" id="Calque_1" xmlns="http://www.w3.org/2000/svg" xmlns:xlink="http://www.w3.org/1999/xlink" x="0px" y="0px"
	 viewBox="0 0 3896 1259" style="enable-background:new 0 0 3896 1259;" xml:space="preserve">
<style type="text/css">
	.st0{fill:#FFFFFF;}
</style>
<g>
	<path class="st0" d="M1438.7,657.9h77.1v50.7h1.4c7.2-15.3,18.8-29,34.8-40.9s37.5-17.9,64.6-17.9c50.9,0,84.7,20.1,101.4,60.2
		c11.7-20.7,26.4-35.9,44-45.6c17.6-9.7,38.5-14.5,62.9-14.5c21.6,0,39.9,3.6,54.8,10.8s26.9,17.1,36.2,29.8
		c9.2,12.6,15.9,27.4,19.9,44.3c4.1,16.9,6.1,35.1,6.1,54.4v193.4h-81.1v-184c0-9.9-0.9-19.5-2.7-28.7c-1.8-9.2-5-17.3-9.5-24.3
		s-10.6-12.5-18.3-16.6c-7.7-4.1-17.6-6.1-29.8-6.1c-12.6,0-23.3,2.4-32.1,7.1c-8.8,4.7-16,11.1-21.6,18.9
		c-5.6,7.9-9.7,16.9-12.2,27s-3.7,20.4-3.7,30.8v175.8h-81.1V789.1c0-20.3-4.3-36.4-12.8-48.3c-8.6-11.9-22.8-17.9-42.6-17.9
		c-13.5,0-24.9,2.3-34.1,6.8s-16.9,10.6-23,18.3s-10.5,16.5-13.2,26.4s-4.1,20.3-4.1,31.1v177.2h-81.1V657.9H1438.7z"/>
	<path class="st0" d="M1987.1,820.2c0-25.7,4.6-49,13.9-70c9.2-21,21.7-38.9,37.5-53.8c15.8-14.9,34.5-26.4,56.1-34.5
		c21.6-8.1,44.6-12.2,69-12.2s47.3,4.1,69,12.2c21.6,8.1,40.3,19.6,56.1,34.5s28.3,32.8,37.5,53.8s13.9,44.3,13.9,70
		s-4.6,49-13.9,70c-9.2,21-21.8,38.9-37.5,53.8c-15.8,14.9-34.5,26.4-56.1,34.5s-44.6,12.2-69,12.2s-47.3-4.1-69-12.2
		s-40.4-19.6-56.1-34.5c-15.8-14.9-28.3-32.8-37.5-53.8C1991.7,869.2,1987.1,845.9,1987.1,820.2z M2068.2,820.2
		c0,12.6,2.1,24.8,6.4,36.5c4.3,11.7,10.6,22.1,18.9,31.1s18.4,16.2,30.1,21.6c11.7,5.4,25,8.1,39.9,8.1s28.2-2.7,39.9-8.1
		c11.7-5.4,21.7-12.6,30.1-21.6c8.3-9,14.6-19.4,18.9-31.1c4.3-11.7,6.4-23.9,6.4-36.5s-2.1-24.8-6.4-36.5
		c-4.3-11.7-10.6-22.1-18.9-31.1c-8.3-9-18.4-16.2-30.1-21.6c-11.7-5.4-25-8.1-39.9-8.1s-28.2,2.7-39.9,8.1
		c-11.7,5.4-21.8,12.6-30.1,21.6c-8.3,9-14.7,19.4-18.9,31.1C2070.4,795.4,2068.2,807.6,2068.2,820.2z"/>
	<path class="st0" d="M2645.7,933.8h-1.4c-11.7,19.8-27.5,34.3-47.3,43.3s-41.2,13.5-64.2,13.5c-25.3,0-47.7-4.4-67.3-13.2
		c-19.6-8.8-36.4-20.8-50.4-36.2c-14-15.3-24.6-33.4-31.8-54.1c-7.2-20.7-10.8-43-10.8-66.9s3.8-46.2,11.5-66.9s18.4-38.8,32.1-54.1
		c13.7-15.3,30.3-27.4,49.7-36.2s40.6-13.2,63.6-13.2c15.3,0,28.8,1.6,40.6,4.7c11.7,3.2,22.1,7.2,31.1,12.2s16.7,10.3,23,15.9
		c6.3,5.6,11.5,11.2,15.6,16.6h2V471.3h81.1v511.2h-77.1L2645.7,933.8L2645.7,933.8z M2453.7,820.2c0,12.6,2.1,24.8,6.4,36.5
		c4.3,11.7,10.6,22.1,18.9,31.1c8.3,9,18.4,16.2,30.1,21.6c11.7,5.4,25,8.1,39.9,8.1s28.2-2.7,39.9-8.1
		c11.7-5.4,21.7-12.6,30.1-21.6c8.3-9,14.6-19.4,18.9-31.1c4.3-11.7,6.4-23.9,6.4-36.5s-2.1-24.8-6.4-36.5
		c-4.3-11.7-10.6-22.1-18.9-31.1c-8.3-9-18.4-16.2-30.1-21.6c-11.7-5.4-25-8.1-39.9-8.1s-28.2,2.7-39.9,8.1
		c-11.7,5.4-21.8,12.6-30.1,21.6s-14.7,19.4-18.9,31.1C2455.8,795.4,2453.7,807.6,2453.7,820.2z"/>
	<path class="st0" d="M3083.9,982.5h-77.1v-52.1h-1.4c-7.7,16.2-19.4,30.3-35.2,42.3c-15.8,11.9-37.2,17.9-64.2,17.9
		c-21.6,0-40-3.5-55.1-10.5s-27.4-16.4-36.9-28.4c-9.5-11.9-16.2-25.6-20.3-40.9c-4.1-15.3-6.1-31.3-6.1-48V657.9h81.1v164.3
		c0,9,0.4,19.1,1.4,30.1c0.9,11.1,3.3,21.4,7.1,31.1c3.8,9.7,9.7,17.8,17.6,24.3c7.9,6.5,19,9.8,33.5,9.8c13.5,0,24.9-2.2,34.1-6.8
		c9.2-4.5,16.9-10.6,23-18.3s10.5-16.5,13.2-26.4s4.1-20.3,4.1-31.1v-177h81.1L3083.9,982.5L3083.9,982.5z"/>
	<path class="st0" d="M3150.2,471.3h81.1v511.2h-81.1V471.3z"/>
	<path class="st0" d="M3362.5,848.6c2.7,24.3,12.2,43.3,28.4,56.8s35.8,20.3,58.8,20.3c20.3,0,37.3-4.2,51.1-12.5
		c13.7-8.3,25.8-18.8,36.2-31.4l58.2,44c-18.9,23.4-40.1,40.1-63.6,50c-23.4,9.9-48,14.9-73.7,14.9c-24.3,0-47.3-4.1-69-12.2
		s-40.4-19.6-56.1-34.5c-15.8-14.9-28.3-32.8-37.5-53.8s-13.9-44.3-13.9-70s4.6-49,13.9-70c9.2-21,21.7-38.9,37.5-53.8
		c15.8-14.9,34.5-26.4,56.1-34.5s44.6-12.2,69-12.2c22.5,0,43.2,4,61.9,11.8c18.7,7.9,34.7,19.3,48,34.1
		c13.3,14.9,23.7,33.2,31.1,55.1c7.4,21.9,11.2,47,11.2,75.4v22.3h-247.6V848.6z M3528.8,787.8c-0.5-23.9-7.9-42.7-22.3-56.5
		c-14.4-13.7-34.5-20.6-60.2-20.6c-24.3,0-43.6,7-57.8,21s-22.9,32.7-26,56.1H3528.8z"/>
	<path class="st0" d="M3831.8,747.9c-15.8-22.1-37-33.1-63.6-33.1c-10.8,0-21.4,2.7-31.8,8.1c-10.4,5.4-15.6,14.2-15.6,26.4
		c0,9.9,4.3,17.1,12.8,21.6c8.6,4.5,19.4,8.3,32.5,11.5s27.2,6.4,42.3,9.8c15.1,3.4,29.2,8.6,42.3,15.6s23.9,16.6,32.5,28.7
		c8.6,12.2,12.8,28.9,12.8,50c0,19.4-4.2,35.7-12.5,49c-8.3,13.3-19.2,24-32.5,32.1s-28.3,14-45,17.6s-33.4,5.4-50,5.4
		c-25.3,0-48.5-3.6-69.6-10.8c-21.2-7.2-40.1-20.3-56.8-39.2l54.1-50.7c10.4,11.7,21.5,21.3,33.5,28.7c11.9,7.4,26.5,11.2,43.6,11.2
		c5.9,0,11.9-0.7,18.3-2c6.3-1.4,12.2-3.6,17.6-6.8c5.4-3.1,9.8-7.1,13.2-11.8s5.1-10.2,5.1-16.6c0-11.3-4.3-19.6-12.8-25
		c-8.6-5.4-19.4-9.8-32.5-13.2s-27.2-6.5-42.3-9.5c-15.1-2.9-29.2-7.7-42.3-14.2s-23.9-15.7-32.5-27.4s-12.8-27.9-12.8-48.7
		c0-18,3.7-33.7,11.2-47c7.4-13.3,17.2-24.2,29.4-32.8s26.1-14.9,41.9-18.9c15.8-4.1,31.8-6.1,48-6.1c21.6,0,43,3.7,64.2,11.2
		c21.2,7.4,38.3,20.2,51.4,38.2L3831.8,747.9z"/>
</g>
<g>
	<path class="st0" d="M1049.4,299.7c20.5,20.5,47.2,30.7,80.4,30.7s59.9-10.2,80.4-30.7c20.5-20.5,30.7-46.3,30.7-77.4
		s-10.2-57-30.7-77.4c-20.5-20.5-47.2-30.7-80.4-30.7s-59.9,10.2-80.4,30.7c-20.5,20.5-30.7,46.3-30.7,77.4S1029,279.2,1049.4,299.7
		z"/>
	<path class="st0" d="M520.6,929.5c-13.7,0-24.5,3.9-32.5,11.8c-8,7.9-12.9,18.4-14.6,31.5h93.5c-0.3-13.4-4.4-24-12.5-31.7
		C546.3,933.4,535,929.5,520.6,929.5z"/>
	<path class="st0" d="M1153.2,681H974.9l161.7-246.4c-7.8,1.9-15.6,3.6-23.4,4.9c-7.8,1.3-15.9,1.9-24.4,1.9
		c-32.5,0-62-5.8-88.6-17.5c-26.6-11.7-49.4-27.6-68.2-47.7c-18.8-20.1-33.5-44-43.8-71.6c-10.4-27.6-15.6-57-15.6-88.1
		c0-35.7,6.7-68,20-96.9c13.3-28.9,31.5-53.7,54.5-74.5c21-18.9,45.3-33.9,73-45H669.7c19.4,8.2,36.7,18.8,51.9,31.9
		c20.1,17.2,35.9,38.8,47.2,64.8c11.4,26,17,56.2,17,90.6c0,22.1-2.3,42-6.8,59.9c-4.5,17.9-10.9,34.1-19,48.7
		c-8.1,14.6-17.7,28.1-28.7,40.4c-11,12.3-23.1,24.3-36,36L486,552.5h305.8V681H310.7V526.2l267.9-240.6
		c13.6-12.3,27.3-26.3,40.9-41.9c13.6-15.6,20.5-33.8,20.5-54.5c0-23.4-8.4-41.7-25.3-55c-16.9-13.3-36.7-20-59.4-20
		c-27.3,0-48.5,8.4-63.8,25.3c-15.3,16.9-23.9,37.7-25.8,62.3l-146.1-10.7c1.9-35.7,9.4-66.7,22.4-93c13-26.3,30.2-48.2,51.6-65.7
		C409.7,19,428.1,8.3,448.7,0H-0.2v1259h1259V516.1L1153.2,681z M401.2,938.6h-50.2v79.8c0,9.1,1.7,16.3,5.1,21.7s10.2,8,20.3,8
		c4,0,8.5-0.4,13.3-1.3c4.8-0.9,8.6-2.3,11.4-4.4v38.4c-4.8,2.3-10.7,3.9-17.7,4.8c-7,0.9-13.1,1.3-18.4,1.3
		c-12.2,0-22.1-1.3-29.8-4c-7.7-2.7-13.8-6.7-18.2-12.2c-4.4-5.4-7.5-12.2-9.1-20.3c-1.7-8.1-2.5-17.5-2.5-28.1v-83.6h-37.6v-38.8
		h37.6v-52.8h45.6v52.8h50.2V938.6z M612.5,1007H473.4c1.5,13.7,6.8,24.3,16,31.9c9.1,7.6,20.1,11.4,33.1,11.4c11.4,0,21-2.3,28.7-7
		c7.7-4.7,14.5-10.6,20.3-17.7l32.7,24.7c-10.6,13.2-22.6,22.6-35.7,28.1c-13.2,5.6-27,8.4-41.4,8.4c-13.7,0-26.6-2.3-38.8-6.8
		s-22.7-11-31.5-19.4c-8.9-8.4-15.9-18.4-21.1-30.2c-5.2-11.8-7.8-24.9-7.8-39.3s2.6-27.6,7.8-39.3c5.2-11.8,12.2-21.8,21.1-30.2
		c8.9-8.4,19.4-14.8,31.5-19.4s25.1-6.8,38.8-6.8c12.7,0,24.3,2.2,34.8,6.7c10.5,4.4,19.5,10.8,27,19.2c7.5,8.4,13.3,18.7,17.5,31
		c4.2,12.3,6.3,26.4,6.3,42.4V1007z M771.7,942.1c-3.8-1-7.5-1.8-11.2-2.5c-3.7-0.6-7.3-0.9-10.8-0.9c-10.6,0-19.2,2-25.7,5.9
		c-6.5,3.9-11.4,8.4-14.8,13.5c-3.4,5.1-5.7,10.1-6.8,15.2c-1.1,5.1-1.7,8.9-1.7,11.4v97.7h-45.6V899.9h45.6v28.9h0.8
		c5.1-10.6,12.3-18.9,21.7-24.7c9.4-5.8,20.1-8.7,32.3-8.7c2.8,0,5.5,0.3,8.2,0.8c2.7,0.5,5.4,1.1,8.2,1.9V942.1z"/>
</g>
</svg>
