<svg xmlns="http://www.w3.org/2000/svg" width="1019.021" height="441.417" viewBox="0 0 1019.021 441.417">
  <g id="dropizi_white" transform="matrix(0.999, 0.052, -0.052, 0.999, 20.391, 0)" opacity="0.9">
    <path id="Logo_Dropizi-2" d="M727.519,389.615c-16.6,0-31.247-8.788-40.035-22.459a45.42,45.42,0,0,1-1.953-45.894c-3.906-5.859-6.835-12.694-6.835-19.53l-2.929-55.659c-9.765,8.788-21.483,14.647-33.2,19.53a93.744,93.744,0,0,1-32.224,5.859l-10.741.976,1.953,34.177A36.139,36.139,0,0,1,567.377,344.7l-21.482.976h-1.953a35.711,35.711,0,0,1-29.294-15.624c-24.412,15.624-49.8,24.412-77.142,25.388a141.332,141.332,0,0,1-52.73-10.741c-6.835,6.835-14.647,9.765-24.412,10.741H337.9c-12.694,0-24.412-6.835-31.247-16.6l-32.224-51.753,1.953,35.153c0,9.765-2.929,19.53-9.765,26.365-5.859,6.835-14.647,11.718-24.412,11.718l-21.482.977h-1.953A37.48,37.48,0,0,1,188.5,345.673c-4.882,2.929-10.741,5.859-15.624,8.788-16.6,6.835-34.177,11.718-52.73,11.718l-71.283,3.906H46.914a36.35,36.35,0,0,1-36.13-34.177L.043,139.636A36.138,36.138,0,0,1,34.22,101.554L105.5,97.648h8.788a143.444,143.444,0,0,1,44.918,6.835c5.859,1.953,11.718,3.906,16.6,6.835,5.859-10.741,17.577-17.577,30.271-18.553l69.33-3.906h9.765c35.153,0,58.589,10.741,72.259,25.388,10.741-9.765,23.436-16.6,37.106-22.459s28.318-7.812,42.965-7.812h6.835a131.008,131.008,0,0,1,50.777,13.671l1.953.976c5.859-12.694,17.577-21.482,32.224-22.459l51.753-2.929c6.835,0,13.671-.976,19.53-.976,8.788,0,17.577,0,25.388.976,14.647.976,28.318,4.882,41.012,12.694a7.4,7.4,0,0,0,3.906,1.953A36.677,36.677,0,0,1,702.131,66.4l21.482-.976h1.953A35.209,35.209,0,0,1,745.1,71.283c5.859-4.882,12.694-6.835,20.506-7.812l125.966-6.835h.976c0-1.953-.976-4.882-.976-6.835C890.591,23.435,910.12.976,936.485,0h2.93c25.388,0,45.894,19.53,47.847,44.918v2.929c0,6.835-1.953,14.647-4.883,21.482,3.906,5.859,6.836,12.694,6.836,19.53l10.741,196.272h0a36.139,36.139,0,0,1-34.177,38.083l-21.483.976h-1.953a35.209,35.209,0,0,1-19.53-5.859c-5.859,4.882-12.694,6.835-20.506,7.812l-125.966,6.835h-.976c0,1.953.976,4.882.976,6.835a47.2,47.2,0,0,1-11.718,34.177c-8.788,9.765-20.506,14.647-33.2,15.624ZM707.99,341.767v.976c.977,10.741,9.765,19.53,20.506,18.553h0c10.741-.977,18.553-8.788,18.553-19.53v-.976c-.977-10.741-8.788-18.553-19.53-18.553h-.976C716.778,323.214,707.99,332,707.99,341.767ZM107.456,124.989,36.173,128.9c-4.882,0-8.788,3.906-7.812,8.788L39.1,334.932c0,4.882,3.906,8.788,8.788,7.812l71.283-3.906c14.647-.977,29.294-3.906,41.989-9.765,12.694-4.882,23.435-13.671,32.224-23.435,5.859-5.859,10.741-13.671,14.647-20.506l1.953,40.036c0,4.882,3.906,8.788,8.788,7.812L240.257,332c4.882,0,8.788-3.906,7.812-8.788h0l-2.929-62.495c0-4.882,2.929-8.788,7.812-8.788h0l26.365-.976a8.881,8.881,0,0,1,7.812,3.906l42.965,68.353a8.881,8.881,0,0,0,7.812,3.906l21.482-.976a7.343,7.343,0,0,0,6.835-4.882,13.548,13.548,0,0,0,0-8.788L325.21,244.119c-1.953-3.906-.976-8.788,1.953-10.741l5.859-5.859a96.947,96.947,0,0,0,4.882,29.294,81.051,81.051,0,0,0,19.529,33.2c9.765,9.765,20.506,18.553,33.2,24.412a97.106,97.106,0,0,0,79.095,4.882,109.394,109.394,0,0,0,59.565-58.589l.977-1.953,2.929,47.847c0,4.882,3.906,8.788,8.788,7.812l21.483-.976c4.882,0,8.788-3.906,7.812-8.788l-2.929-52.73c0-4.882,2.929-8.788,7.812-8.788h0l29.294-1.953c8.788-.976,17.577-1.953,25.388-4.882a70.474,70.474,0,0,0,23.436-13.671,78.78,78.78,0,0,0,16.6-23.435.956.956,0,0,1,.976-.977c4.882-11.718,5.859-24.412,4.882-37.106a83.245,83.245,0,0,0-7.812-34.177c-.976-.977-.976-2.929-1.953-3.906-3.906-6.835-9.765-11.718-15.624-15.624a73.253,73.253,0,0,0-29.294-8.788,287.449,287.449,0,0,0-41.012,0l-51.753,2.929c-1.953,0-4.882.976-5.859,2.929-1.953,1.953-1.953,3.906-1.953,5.859l1.953,43.941c-1.953-3.906-4.882-6.835-7.812-9.765a113.339,113.339,0,0,0-74.212-35.153,84.437,84.437,0,0,0-38.083,5.859,112.538,112.538,0,0,0-34.177,21.483c-6.835,6.835-13.671,14.647-18.553,23.435-5.859-33.2-31.247-47.847-75.189-45.894l-69.33,3.906c-4.882,0-8.788,3.906-7.812,8.788l1.953,40.036a92.607,92.607,0,0,0-50.777-39.059,112.058,112.058,0,0,0-36.13-5.859C112.338,124.989,110.385,124.989,107.456,124.989ZM724.59,92.765l-21.482.976c-1.953,0-4.882.977-5.859,2.929-1.953,1.953-1.953,3.906-1.953,5.859l10.741,197.248c0,4.882,3.906,8.788,8.788,7.812l21.483-.977c1.953,0,4.882-.976,5.859-2.929,1.953-1.953,1.953-3.906,1.953-5.859l-9.765-196.272c0-4.882-3.906-8.788-9.765-8.788Zm112.295,37.106a9.492,9.492,0,0,1,.977,8.788L765.6,291.967a9.492,9.492,0,0,0,.977,8.788,8.881,8.881,0,0,0,7.812,3.906l125.966-6.835h0c3.906,0,6.835-3.906,6.835-7.812h0l-.977-24.412a7.46,7.46,0,0,0-1.953-4.882c-1.953-.976-2.93-1.953-4.882-1.953L838.838,261.7a8.881,8.881,0,0,1-7.812-3.906,9.491,9.491,0,0,1-.977-8.788L902.309,95.695a9.491,9.491,0,0,0-.977-8.788A8.881,8.881,0,0,0,893.521,83L767.555,89.836c-3.906,0-6.835,3.906-6.835,7.812l.977,24.412a7.458,7.458,0,0,0,1.953,4.882c1.953.976,2.929,1.953,5.859,1.953l60.542-2.929h0C832.979,126.942,835.908,127.919,836.885,129.872ZM952.109,81.048l-21.482.976c-1.953,0-4.883.976-5.859,2.929-1.953,1.953-1.953,3.906-1.953,5.859l7.812,157.213V249l1.953,37.106c0,4.882,4.883,8.788,9.765,8.788l21.482-.976h0c4.882,0,8.788-3.906,7.812-8.788L960.9,87.883c0-3.906-3.906-6.835-8.789-6.835Zm-33.2-34.177v.976A20.281,20.281,0,0,0,939.415,66.4c10.741,0,18.553-8.788,19.53-19.53v-.977c-.977-10.741-8.788-18.553-19.53-18.553h-.977a19.587,19.587,0,0,0-19.529,19.53ZM75.232,294.9,68.4,172.837c0-1.953.976-4.882,1.953-5.859q2.929-2.929,5.859-2.929l32.224-1.953a60.916,60.916,0,0,1,47.847,15.624c12.694,13.671,18.553,32.224,18.553,50.777a78.39,78.39,0,0,1-13.671,52.73c-11.718,13.671-28.318,20.506-45.894,20.506l-32.224,1.953h0c-3.906,0-7.812-3.906-7.812-8.788Zm357.391-4.882c-17.577-.977-35.153-8.788-46.871-22.459a55.686,55.686,0,0,1-10.741-21.483c-1.953-8.788-1.953-16.6-.976-25.388a136.393,136.393,0,0,1,8.788-28.318,83.175,83.175,0,0,1,16.6-24.412,63.7,63.7,0,0,1,20.506-15.624c7.812-3.906,15.624-4.882,23.435-4.882a47.307,47.307,0,0,1,25.388,6.835c16.6,5.859,28.318,20.506,32.224,37.106a78.852,78.852,0,0,1-7.812,53.706,83.172,83.172,0,0,1-16.6,24.412,63.7,63.7,0,0,1-20.506,15.624,59,59,0,0,1-23.436,4.882ZM245.139,213.849q-2.929-2.929-2.929-5.859l-2.929-47.847c0-1.953.976-4.882,1.953-5.859q2.929-2.929,5.859-2.929l21.482-.976a48.666,48.666,0,0,1,33.2,5.859c6.835,5.859,10.741,14.647,9.765,23.435a34.425,34.425,0,0,1-7.812,25.388c-9.765,6.835-21.483,10.741-33.2,9.765l-18.553.976h0a14.114,14.114,0,0,1-6.835-1.953ZM567.377,199.2l-2.929-56.636c0-1.953.977-4.882,1.953-5.859q2.929-2.929,5.859-2.929l23.436-.976c6.835-.976,13.671,0,19.529.976a30.264,30.264,0,0,1,12.694,5.859,43.356,43.356,0,0,1,7.812,10.741A44.23,44.23,0,0,1,638.66,166a37.893,37.893,0,0,1-7.812,30.271,49.8,49.8,0,0,1-30.271,10.741l-24.412.976h0a8.752,8.752,0,0,1-8.788-8.788Z" transform="translate(0 0)" fill="#2a333d"/>
  </g>
</svg>
