<?xml version="1.0" encoding="UTF-8"?>
<!-- Generator: Adobe Illustrator 22.1.0, SVG Export Plug-In . SVG Version: 6.00 Build 0) -->
<svg xmlns="http://www.w3.org/2000/svg" xmlns:xlink="http://www.w3.org/1999/xlink" id="Layer_1" x="0px" y="0px" viewBox="0 0 2400.1 796.8" style="enable-background:new 0 0 2400.1 796.8;" xml:space="preserve"> <style type="text/css"> .st0{fill:#004C97;} .st1{fill:#002856;} .st2{fill:#DC4405;} </style> <g id="texte"> </g> <g id="ombre"> </g> <g id="orange"> <path id="path883" class="st0" d="M263.9,0C163.3,0,101.7,72.6,101.3,161.8l0,0v0.8v3.8v184.7v192.6h81V351.1V166.5 c0-1.4,0-2.9,0-4.2c0.1-22.9,7-44.9,20.5-61.1c13.6-16.4,33.8-27,61.1-27c27.2,0,47.5,10.6,61.1,27c12.9,15.6,19.8,36.4,20.5,58.2 h80.2C425,115.9,410,76.6,382.8,47.8C355,18.3,314.3,0,263.9,0L263.9,0z M964.1,143.6v88.1h-46.4v69.9H964v242.1h80.5V301.6h82.7 v-69.9h-82.6v-88.1H964.1z M763,222.1c-28.4,0-61.3,6.3-87.3,21.7c-25.9,15.4-44.9,40.4-44.9,76.7c0,35.7,17.9,59.4,42.9,74.2 c25.1,14.9,57.3,21.3,86.6,23.5c21.8,1.2,36.8,4.1,46.1,9c9.3,4.9,13.2,11.4,13.2,21.5c0,10.4-6.1,19.1-16,25.3 c-9.9,6.2-23.5,9.8-37.5,9.5c-33.7-0.6-83.6-18.9-104.8-42.5l-40.6,57.3c45.5,47.4,95,55.8,144,55.8c44.5,0,78.2-11.8,100.7-30.7 c22.6-18.9,34-44.9,34-72.7c0-41.6-19-66.3-45.3-80.6c-26.2-14.3-59.6-18.4-88.8-20.3c-19.5-1.2-33.6-4.7-42.6-10.1 c-9-5.4-12.9-12.3-12.9-21.7c0-9,4.4-15.8,13.5-20.8s22.8-7.7,40.7-7.7c29.1,0,53.3,6.6,74.8,26.9l45.4-53.2 C848.4,231.8,811.5,222.2,763,222.1L763,222.1z M1288.2,225.3c-75.1,0-136.8,61.7-136.8,136.7v181.4h80.3V362 c0-31.9,24.5-56.4,56.4-56.4s56.3,24.5,56.3,56.4v2.9l0.2-0.3v178.8h80.3V362c0-31.9,24.5-56.4,56.4-56.4s56.3,24.5,56.3,56.4 v181.4h80.5V362c0-75.1-61.7-136.7-136.8-136.7c-37.7,0-71.9,15.5-96.8,40.5C1359.9,240.9,1325.8,225.3,1288.2,225.3L1288.2,225.3z M414.8,227.2c-99.2,0-161.6,73.6-161.6,162.7c0,44.9,15.1,85.5,43.1,115.1c27.9,29.5,68.6,47.8,119.1,47.8 c32.3,0,60.5-7.6,84-20.8l1.3,14.3h76V233.6h-77.3l-0.8,15C474.8,235.3,446.7,227.3,414.8,227.2L414.8,227.2z M1819.8,227.2 c-99.2,0-161.6,73.6-161.6,162.7c0,44.9,15.2,85.5,43.1,115.1c27.9,29.5,68.6,47.8,119.1,47.8c32.3,0,60.5-7.6,84-20.8l1.3,14.3 h75.9V233.6h-77.3l-0.8,15C1879.8,235.3,1851.7,227.3,1819.8,227.2L1819.8,227.2z M2046.9,293.3c-15.5,25.6-23.9,56.1-23.9,88.7 c0,51.7,20.3,97.8,56.8,127.6l0.1,0.2l0.1,0.2h0.1c11.1,9.1,23.7,16.6,37.7,22.3c11.1,4.5,21.7,7.3,33.6,9.6 c11.8,2.2,28.6,1.9,43.2,3.5c44.6,5.1,72.3,46.1,72.3,88.5c0,23-6.9,45.2-20.5,61.6s-33.9,27-61.2,27s-47.5-10.7-61.2-27 c-13.6-16.4-20.5-38.6-20.5-61.6c0-22.9,7.3-45.4,21.3-62.1c-25.6-7.4-49.5-20.1-70.3-37.7c-20.2,27.7-31.4,62.3-31.4,99.8 c0,44.9,15.1,85.5,43.1,115.1c27.9,29.5,68.6,47.8,119.1,47.8c101.1,0,162.8-73.1,162.8-162.8c0-84.4-57.6-155.1-147.9-162.4 c-7-0.6-13.7-0.6-20.3-0.9c-25.5-1.4-44.4-12.3-57.1-28.5c-12.7-16.2-19.3-37.6-19.3-59.9c0-22.7,7.1-45,20.8-61.6 c12.6-15.2,30.8-25.6,54.6-27.2L2046.9,293.3z M2188.3,293.3c25.7,0.8,45,11.4,58.1,27.4c4,4.8,7.3,10.2,10.2,15.9 c6.8,15.5,10.3,29.5,10.3,45.5c0,23.4-7.3,45.9-21.4,62.3c26.9,8.1,50.8,21.5,70.9,38.9c16.4-22.2,26.8-49,30.4-78.3 c1.4-14.8,1.5-28.6,0.3-41.5c-2.6-25.6-10.3-49.4-22.5-70.1L2188.3,293.3z M415.4,300.7c49.7,0,81.2,43.3,81.7,88.2v2.3 c-0.2,22.8-7.3,44.7-20.9,60.8c-13.6,16.1-33.8,26.6-60.8,26.6c-27.3,0-47.5-10.6-61.2-27c-13.6-16.4-20.6-38.6-20.6-61.6 c0-22.7,7.1-45,20.8-61.6C368.2,311.7,388.4,300.7,415.4,300.7L415.4,300.7z M1820.4,300.7c49.7,0,81.2,43.3,81.7,88.2v2.3 c-0.2,22.8-7.3,44.7-20.9,60.8c-13.6,16.1-33.8,26.6-60.8,26.6c-27.3,0-47.5-10.6-61.2-27c-13.6-16.4-20.6-38.6-20.6-61.6 c0-22.7,7.1-45,20.8-61.6C1773.2,311.7,1793.4,300.7,1820.4,300.7L1820.4,300.7z"/> <path id="path2032-6_2_" class="st1" d="M2046.9,293.3c-3.5,5.8-6.7,11.9-9.5,18.2h95.7c11.4-9.9,26-16.4,43.8-18v-0.1 L2046.9,293.3z M2188.5,293.3c20.3,0.7,36.5,7.4,48.9,18.1h96.3c-0.5-1.2-1.1-2.5-1.6-3.7c-0.1-0.3-0.2-0.5-0.3-0.8 c-0.6-1.3-1.2-2.6-1.9-3.9v-0.1c0,0,0-0.1-0.1-0.1c-1.6-3.3-3.4-6.5-5.3-9.6L2188.5,293.3z"/> <path id="rect825_2_" class="st1" d="M101.3,293.3v18.5h81v-18.5H101.3z"/> <path id="path2034-7" class="st2" d="M2184.6,219.2c-10.6,0.1-19.3,1-28.7,2.4c-48.8,7.6-86.5,34.4-109,71.8h353.2v-74.1 L2184.6,219.2z"/> <path id="path2036-6" class="st2" d="M0,219.3v74.1h260.2c-23.3-45.5-70.1-74.1-121.3-74.1H0z"/> </g> </svg>