<svg xmlns="http://www.w3.org/2000/svg" width="363.515" height="586.21" viewBox="0 0 363.515 586.21">
  <g id="Groupe_9" data-name="Groupe 9" transform="translate(473.295 -44.48) rotate(90)">
    <path id="Tracé_17" data-name="Tracé 17" d="M630.535,460.8c-71.858-17-158.593-64.95-200.64-138.642-9.313-16.314-15.428-32.489-20.829-46.763-10.517-27.807-19.6-51.83-47.128-64.892-30.037-14.251-60.432-5.544-89.828,2.867-30.208,8.649-58.741,16.812-85.018.167-17.262-10.941-21.5-24.866-26-39.607-4.146-13.595-8.431-27.648-23.459-39.078-25.876-19.675-60.591-13.4-93.153-2.141v4.107c31.933-11.19,66-17.736,90.8,1.131,14.034,10.669,17.95,23.518,22.1,37.116,4.507,14.768,9.161,30.041,27.64,41.751,27.756,17.589,57.1,9.189,88.165.291,28.7-8.214,58.392-16.722,87.092-3.093,26.113,12.39,34.521,34.614,45.162,62.755,5.447,14.4,11.625,30.729,21.085,47.315,42.8,75.009,131.136,123.68,204.016,140.705Z" transform="translate(0 8.509)" fill="#006fce"/>
    <path id="Tracé_16" data-name="Tracé 16" d="M44.6,217.708c41.219-13.047,90.651-65.785,134.9-48.41,44.269,17.383,28.456,83.444,74.6,101.487,48.356,18.91,86.952-45.341,147.33-35.519,76.159,12.386,67.678,123.221,158.519,162.381,21.625,9.321,45.761,13.229,70.4,12.81V139.78H44.6Z" transform="translate(0.346 -30)" fill="#3b8af8" opacity="0.5"/>
  </g>
</svg>
